<?xml version="1.0" encoding="UTF-8"?>
<svg id="_圖層_1" data-name="圖層 1" xmlns="http://www.w3.org/2000/svg" viewBox="0 0 186.57 38">
  <defs>
    <style>
      .cls-1 {
        fill: #fff;
      }

      .cls-2 {
        fill: #009d95;
      }

      .cls-3 {
        fill: #080058;
      }

      .cls-4 {
        fill: none;
        stroke: #080058;
        stroke-width: .81px;
      }
    </style>
  </defs>
  <g>
    <polygon class="cls-2" points="38.15 3.37 0 3.37 0 22.48 1.95 22.48 1.95 34.76 17.54 22.48 20.31 22.48 35.9 34.76 35.9 22.48 38.15 22.48 38.15 3.37"/>
    <path class="cls-3" d="M17.15,3.83v7.86h3.83V3.83l17.16-.03V0H0v3.81l17.15.03Z"/>
    <path class="cls-3" d="M34.31,8.35v22.49c-3.82-2.55-12.06-8.04-13.32-8.88l-1.91-1.33-1.92,1.33c-1.26.84-9.5,6.33-13.32,8.88V8.35H0v29.65l19.07-12.72,19.07,12.72V8.35h-3.83Z"/>
    <g>
      <path class="cls-1" d="M7.33,15.45c.42-.67,1.51-.83,2.23-.83h4.22s0-.88,0-.88h-1.47s-1.93,0-1.93,0c0,0-1.12.02-1.12.02-.34.01-.73.03-1.14.07-1.41.12-2.9,1.13-2.61,2.7.31,1.66,2.01,2,3.43,2.12.58.05,1.06.08,1.43.09.37.01.77.02,1.21.02,0,0,1.05-.03,1.05-.03,0,0,.6-.02.6-.02.29-.02.35-.02.38-.03l.15-.03v-2.91h-4.59v.86h2.79v1.28c-.58,0-1.13-.02-1.63-.04-1.15-.06-3.52-.28-3.16-2.01.03-.14.08-.26.15-.37Z"/>
      <path class="cls-1" d="M21.79,14.26c-.66-.36-1.65-.54-2.92-.54-1.21,0-2.28.25-3.19.75-.94.51-1.41,1.11-1.41,1.77,0,.73.47,1.34,1.39,1.81.89.45,2.03.68,3.39.68,1.18,0,2.22-.23,3.08-.67.89-.46,1.34-1.06,1.34-1.77,0-.38-.12-.73-.35-1.03-.23-.3-.66-.62-1.33-.98ZM21,17.39c-.55.33-1.18.5-1.88.5-.89,0-1.64-.16-2.24-.49-.57-.31-.85-.68-.85-1.15,0-.43.25-.81.77-1.16.53-.35,1.25-.53,2.13-.53.8,0,1.49.19,2.05.55.55.36.82.74.82,1.16s-.26.78-.79,1.11Z"/>
      <path class="cls-1" d="M30.79,13.75s-2.83,3.56-3.06,3.85c-.24-.29-3.19-3.85-3.19-3.85l-2.03-.02.23.27,4.04,4.72h1.93l3.99-4.99-1.91.02Z"/>
    </g>
  </g>
  <path class="cls-2" d="M61.76,2.64l1.69-1.72c2.35,1.09,4.11,1.97,5.3,2.65l-1.83,1.63c-1.84-1.09-3.56-1.94-5.16-2.56ZM60.41,14.82c-1.05-1.77-1.89-4.03-2.51-6.79h-6.09v3.18c1.5-.38,2.77-.76,3.81-1.16l1.35,1.89c-1.43.53-3.05,1.01-4.88,1.44-.13.04-.23.07-.28.08v4.79c0,.36-.11.64-.34.85-.28.28-.68.52-1.18.7-1.3.45-3.21.46-5.75.03l-.08-2.23c2.09.43,3.47.51,4.14.23.21-.11.31-.28.31-.51v-3.21c-1.62.34-3.28.66-4.99.96l-.87-2.25c2.31-.32,4.27-.64,5.86-.96v-3.83h-5.36v-2.14h5.36v-2.25c-1.62.13-3.22.24-4.82.34l-.39-2.17c5.05-.15,8.96-.58,11.73-1.3l.99,2.03c-1.37.3-2.9.55-4.59.76v2.59h5.75c-.23-1.56-.35-3.22-.37-4.99l2.9.14c-.02,1.71.07,3.33.25,4.85h8.37v2.14h-8c.26,1.69.77,3.33,1.52,4.9.04-.06.08-.1.14-.14.73-.88,1.44-2.19,2.11-3.92l2.71.79c-1.01,2.29-2.23,4.12-3.64,5.47,1.26,1.5,2.09,2.25,2.48,2.25.13-.02.23-.11.28-.28.19-.49.34-1.34.45-2.56l2.85.65c-.36,2.5-.99,4.04-1.89,4.62-.34.21-.69.32-1.04.34-1.43-.02-3.07-1.16-4.93-3.41-2.16,1.58-4.69,2.65-7.58,3.21l-1.47-2.03c2.8-.39,5.36-1.43,7.69-3.1Z"/>
  <path class="cls-2" d="M88.44,4.77c-.94,1.69-1.62,2.76-2.03,3.21l-2.11-.56v11.89c0,.21-.14.31-.42.31h-10.43c-.26,0-.39-.1-.39-.31V3.47c.02-.19.15-.28.39-.28h3.35c.3-.71.57-1.57.82-2.56l2.76.59c-.26.88-.48,1.54-.65,1.97h4.14c.28.02.42.11.42.28v2.87c1.3-1.71,2.09-3.55,2.37-5.52l2.87.25c-.11.54-.24,1.05-.37,1.52h8.26c.23,0,.4.03.54.08.17.09.28.23.34.39.19.49.17,3.51-.06,9.08-.11,2.35-.46,4.05-1.04,5.1-.62,1.09-1.42,1.84-2.4,2.25-1.63.64-4.32.6-8.06-.11v-2.34c3.48.77,5.7.91,6.68.42.41-.21.77-.6,1.07-1.18.43-.85.7-2.38.82-4.59.11-4.43.11-6.72,0-6.85-.08-.06-.18-.08-.31-.08h-6.57ZM81.39,12.43h-5.44v4.93c0,.08.04.11.11.11h5.19c.09-.02.14-.06.14-.11v-4.93ZM75.95,10.29h5.44v-4.88c-.02-.06-.07-.08-.14-.08h-5.19c-.08,0-.11.03-.11.08v4.88ZM87.39,7.64l2.73-.68c1.62,3.06,2.73,5.46,3.35,7.19l-2.76.51c-.98-2.72-2.09-5.06-3.33-7.02Z"/>
  <path class="cls-2" d="M109.96,11.65v4.38h15.28c.44,0,.78-.08,1.02-.23.24-.15.43-.43.57-.83h.62v5.44h-.62c-.13-.39-.32-.67-.56-.82-.24-.16-.59-.24-1.03-.24h-22.47v-.5c.5-.09.86-.22,1.06-.41.21-.19.31-.44.31-.77V2.85c0-.33-.1-.58-.3-.75-.2-.17-.56-.32-1.07-.45v-.5h21.82c.46,0,.81-.08,1.05-.23.24-.15.43-.43.57-.83h.56v5.44h-.56c-.14-.4-.33-.68-.57-.84-.24-.15-.58-.23-1.04-.23h-14.64v4h9.07c.44,0,.79-.08,1.02-.23.24-.15.43-.43.59-.83h.56v5.31h-.56c-.14-.4-.33-.67-.57-.83-.24-.15-.58-.23-1.04-.23h-9.07Z"/>
  <path class="cls-2" d="M148.66,14.3c-1.22-1.63-1.97-3.42-2.25-5.36-.83,1.2-1.58,2.18-2.25,2.93l-2.59-.99c.21-.24.42-.48.65-.7h-2.54v5.27l4.14-.99.9,2.14-12.91,3.02-1.13-2.06,1.63-.39V6.66h2.79v9.87l1.66-.39V3.42h-5.02V1.28h12.99v2.14h-5.07v4.62h3.5v1.01c.45-.58,1.07-1.61,1.86-3.07.62-1.35,1-3.12,1.13-5.3l2.9.14c-.08.71-.15,1.36-.23,1.94h8.43v2.17h-1.55c-.23,3.44-1.41,6.6-3.55,9.47,1.67,1.63,3.66,3.09,5.98,4.37l-2.73,1.44c-1.92-1.24-3.61-2.57-5.07-4-1.35,1.22-3.5,2.58-6.43,4.09l-2.48-1.69c3.01-1.47,5.08-2.62,6.23-3.47.34-.3.68-.58,1.01-.85ZM152.24,8.63c.3-1,.49-2.23.56-3.69h-4.09c.09,3.23.66,5.68,1.69,7.36.77-.88,1.38-2.1,1.83-3.66Z"/>
  <path class="cls-2" d="M167.28,12.68c-.19.17-.37.32-.54.45l-1.97-.82c-.15,2.8-.87,5.22-2.17,7.27l-2.79-.76c.85-1.39,1.41-2.7,1.69-3.92.26-1.15.4-2.56.42-4.23V2.73c.02-.39.29-.59.82-.59h10.23V.84h2.9v1.3h10.2v2.14h-20.89c-.24,0-.37.08-.37.25v6.76c0,.06,0,.11-.03.17,2.2-2.01,3.72-4.27,4.57-6.76l2.82.56c-.66,1.62-1.36,2.99-2.11,4.12v10.43h-2.79v-7.13ZM181.2,8.99h-9.08v-2.06h9.08v-2h2.9v2h2.37v2.06h-2.37v9.19c0,.36-.11.65-.34.87-.28.26-.68.49-1.18.68-1.82.56-4.46.52-7.92-.14v-2.23c.17.02.34.05.51.08,2.78.58,4.69.69,5.72.31.21-.11.31-.28.31-.51v-8.26ZM172.07,10.68l2.54-1.07c1.41,1.47,2.79,3.36,4.14,5.69l-2.65.99c-1.43-2.44-2.77-4.31-4.03-5.61Z"/>
  <path class="cls-3" d="M52.87,30.43l-2.47,4.09c-.12.2-.18.37-.18.49,0,.26.22.41.66.46v.16h-4.19v-.16c.4-.07.6-.22.6-.46,0-.12-.06-.29-.18-.49l-2.97-5.13c-.23-.4-.42-.66-.58-.79-.16-.13-.39-.22-.71-.28v-.22h4.28v.22c-.42.09-.62.23-.62.42,0,.09.07.26.2.48l2.09,3.55,2.1-3.53c.13-.21.19-.37.19-.48,0-.22-.23-.37-.68-.44v-.22h5.02v.22c-.44.09-.66.25-.66.46,0,.1.06.25.17.44l2.06,3.55,2.09-3.59c.09-.15.13-.29.13-.4,0-.13-.05-.22-.14-.29-.09-.07-.27-.12-.51-.17v-.22h4.39v.22c-.33.08-.57.18-.72.3-.15.12-.34.38-.57.77l-3.04,5.13c-.11.18-.16.34-.16.48,0,.26.23.42.69.47v.16h-4.39v-.16c.43-.08.65-.25.65-.49,0-.06-.07-.21-.22-.46l-2.35-4.09Z"/>
  <path class="cls-3" d="M72.69,30.43l-2.47,4.09c-.12.2-.18.37-.18.49,0,.26.22.41.66.46v.16h-4.19v-.16c.4-.07.6-.22.6-.46,0-.12-.06-.29-.18-.49l-2.97-5.13c-.23-.4-.42-.66-.58-.79-.16-.13-.39-.22-.71-.28v-.22h4.28v.22c-.42.09-.62.23-.62.42,0,.09.07.26.2.48l2.09,3.55,2.1-3.53c.13-.21.19-.37.19-.48,0-.22-.23-.37-.68-.44v-.22h5.02v.22c-.44.09-.66.25-.66.46,0,.1.06.25.17.44l2.06,3.55,2.09-3.59c.09-.15.13-.29.13-.4,0-.13-.05-.22-.14-.29-.09-.07-.27-.12-.51-.17v-.22h4.39v.22c-.33.08-.57.18-.72.3-.15.12-.34.38-.57.77l-3.04,5.13c-.11.18-.16.34-.16.48,0,.26.23.42.69.47v.16h-4.39v-.16c.43-.08.65-.25.65-.49,0-.06-.07-.21-.22-.46l-2.35-4.09Z"/>
  <path class="cls-3" d="M92.5,30.43l-2.47,4.09c-.12.2-.18.37-.18.49,0,.26.22.41.66.46v.16h-4.19v-.16c.4-.07.6-.22.6-.46,0-.12-.06-.29-.18-.49l-2.97-5.13c-.23-.4-.42-.66-.58-.79-.16-.13-.39-.22-.71-.28v-.22h4.28v.22c-.42.09-.62.23-.62.42,0,.09.07.26.2.48l2.09,3.55,2.1-3.53c.13-.21.19-.37.19-.48,0-.22-.23-.37-.68-.44v-.22h5.02v.22c-.44.09-.66.25-.66.46,0,.1.06.25.17.44l2.06,3.55,2.09-3.59c.09-.15.13-.29.13-.4,0-.13-.05-.22-.14-.29-.09-.07-.27-.12-.51-.17v-.22h4.39v.22c-.33.08-.57.18-.72.3-.15.12-.34.38-.57.77l-3.04,5.13c-.11.18-.16.34-.16.48,0,.26.23.42.69.47v.16h-4.39v-.16c.43-.08.65-.25.65-.49,0-.06-.07-.21-.22-.46l-2.35-4.09Z"/>
  <path class="cls-3" d="M104.52,33.57c.46,0,.86.11,1.18.33.32.22.48.48.48.79s-.16.56-.49.78c-.33.21-.72.32-1.17.32s-.85-.11-1.17-.33c-.32-.22-.48-.48-.48-.78s.16-.56.48-.78c.32-.21.71-.32,1.18-.33Z"/>
  <path class="cls-3" d="M118.88,32.73h-2.56c-.21,0-.38.03-.49.09-.11.06-.2.18-.27.34h-.28v-2h.28c.07.16.16.27.27.34.11.07.27.1.49.1h5.37v.22c-.24.05-.41.11-.51.19-.1.08-.15.2-.15.36v1.57c0,.14.05.25.15.32.1.07.27.13.51.18v.16c-2.18.79-4.35,1.19-6.52,1.19-1.87,0-3.38-.29-4.54-.88-.63-.32-1.13-.72-1.51-1.19-.45-.56-.68-1.17-.68-1.81,0-.89.41-1.67,1.23-2.36,1.28-1.07,3.17-1.6,5.67-1.6,1.1,0,2.35.16,3.75.48.56.13.88.19.98.19.11,0,.25-.04.4-.11l.25.09-1.33,1.9-.24-.08v-.04c0-.17-.25-.33-.75-.51-.92-.33-1.91-.49-2.97-.49-1.22,0-2.22.22-3,.66-.82.47-1.23,1.09-1.23,1.87,0,.73.37,1.32,1.12,1.76.77.45,1.84.67,3.23.67s2.43-.16,3.34-.48v-1.14Z"/>
  <path class="cls-3" d="M132.76,30.13c.68.45,1.02,1.05,1.02,1.78,0,.67-.34,1.24-1.02,1.7-.73.49-1.68.74-2.84.74s-2.12-.25-2.85-.74c-.68-.47-1.02-1.05-1.02-1.74s.34-1.28,1.02-1.74c.73-.49,1.68-.74,2.84-.74,1.16.01,2.11.26,2.85.74ZM125.46,28.87c-1.44.72-2.15,1.72-2.15,3s.72,2.28,2.15,3.01c1.18.6,2.67.91,4.46.91s3.28-.3,4.46-.91c1.43-.73,2.14-1.72,2.14-2.95,0-1.31-.71-2.33-2.14-3.06-1.19-.61-2.69-.92-4.48-.92-1.77.01-3.25.32-4.44.92Z"/>
  <path class="cls-3" d="M143.37,33.25l2.72-3.96c.16-.23.24-.4.24-.5,0-.23-.22-.38-.65-.46v-.22h4.35v.22c-.27.05-.46.12-.58.21-.12.09-.28.26-.46.52l-3.94,5.54c-.14.2-.21.35-.21.45,0,.22.22.36.67.42v.16h-4.43v-.16c.44-.06.66-.2.66-.42,0-.11-.07-.26-.21-.45l-3.96-5.54c-.19-.27-.34-.45-.46-.53-.12-.08-.31-.15-.59-.21v-.22h4.57v.22c-.43.09-.65.24-.65.46,0,.09.08.26.25.5l2.7,3.96Z"/>
  <path class="cls-3" d="M151.67,33.57c.46,0,.86.11,1.18.33.32.22.48.48.48.79s-.16.56-.49.78c-.33.21-.72.32-1.17.32s-.85-.11-1.17-.33c-.32-.22-.48-.48-.48-.78s.16-.56.48-.78c.32-.21.71-.32,1.18-.33Z"/>
  <path class="cls-3" d="M162.07,29.48v5.47c0,.13.05.24.14.31.1.07.27.14.51.19v.19h-4v-.19c.24-.04.41-.1.51-.18.1-.08.15-.18.15-.32v-5.48h-3.34c-.22,0-.38.03-.49.1-.11.07-.2.18-.27.34h-.28v-2.25h.28c.06.16.15.28.26.34.11.06.27.1.49.1h9.37c.22,0,.38-.03.49-.1.11-.06.2-.18.27-.34h.28v2.25h-.28c-.07-.16-.16-.27-.27-.34s-.27-.1-.49-.1h-3.34Z"/>
  <path class="cls-3" d="M176.45,30.43l-2.47,4.09c-.12.2-.18.37-.18.49,0,.26.22.41.66.46v.16h-4.19v-.16c.4-.07.6-.22.6-.46,0-.12-.06-.29-.18-.49l-2.97-5.13c-.23-.4-.42-.66-.58-.79-.16-.13-.39-.22-.71-.28v-.22h4.28v.22c-.42.09-.62.23-.62.42,0,.09.07.26.2.48l2.09,3.55,2.1-3.53c.13-.21.19-.37.19-.48,0-.22-.23-.37-.68-.44v-.22h5.02v.22c-.44.09-.66.25-.66.46,0,.1.06.25.17.44l2.06,3.55,2.09-3.59c.09-.15.13-.29.13-.4,0-.13-.05-.22-.14-.29-.09-.07-.27-.12-.51-.17v-.22h4.39v.22c-.33.08-.57.18-.72.3-.15.12-.34.38-.57.77l-3.04,5.13c-.11.18-.16.34-.16.48,0,.26.23.42.69.47v.16h-4.39v-.16c.43-.08.65-.25.65-.49,0-.06-.07-.21-.22-.46l-2.35-4.09Z"/>
  <line class="cls-4" x1="43.43" y1="24.15" x2="185.99" y2="24.15"/>
</svg>